<svg xmlns="http://www.w3.org/2000/svg" viewBox="0 0 48 82.5" x="0px" y="0px"><path fill="#000000" d="M427,115.791049 L427,66.9988624 C427,61.4731 431.47304,57 437.005835,57 L474,57 C474.552285,57 475,57.4477153 475,58 L475,110 C475,110.552285 474.552285,111 474,111 L472.746573,111 C472.654302,111.336285 472.562719,111.702536 472.476187,112.09193 C472.178279,113.432518 472,114.769608 472,116 C472,117.230392 472.178279,118.567482 472.476187,119.90807 C472.562719,120.297464 472.654302,120.663715 472.746573,121 L474,121 C474.552285,121 475,121.447715 475,122 C475,122.552285 474.552285,123 474,123 L472.023059,123 C472.007555,123.000363 471.992084,123.000361 471.976658,123 L433.987435,123 C430.128484,123 426.996937,119.861051 426.996937,116 C426.996937,115.930107 426.997963,115.860452 427,115.791049 L427,115.791049 Z M429,111.097768 C430.269068,109.803381 432.035765,109 433.987435,109 L473,109 L473,59 L437.005835,59 C432.577616,59 429,62.5776635 429,66.9988624 L429,111.097768 Z M470.679152,121 L470.679152,121 C470.626219,120.78841 470.574212,120.568727 470.523813,120.34193 C470.196721,118.870018 470,117.394608 470,116 C470,114.605392 470.196721,113.129982 470.523813,111.65807 C470.574212,111.431273 470.626219,111.21159 470.679152,111 L433.987435,111 C431.236014,111 428.996937,113.240821 428.996937,116 C428.996937,118.757538 431.234112,121 433.987435,121 L470.679152,121 Z M466,90 L436,90 C435.217679,90 434.738329,89.1421725 435.148342,88.4759026 L443.148342,75.4759026 C443.538826,74.8413658 444.461174,74.8413658 444.851658,75.4759026 L447.075956,79.0903861 L453.154511,69.466007 C453.546938,68.8446643 454.453062,68.8446643 454.845489,69.466007 L466.845489,88.466007 C467.266038,89.131876 466.787555,90 466,90 Z M450.210436,88 L444,77.9080422 L437.789564,88 L450.210436,88 Z M464.185673,88 L454,71.8726838 L448.243343,80.9873904 L452.558795,88 L464.185673,88 Z M444,98 C443.447715,98 443,97.5522847 443,97 C443,96.4477153 443.447715,96 444,96 L458,96 C458.552285,96 459,96.4477153 459,97 C459,97.5522847 458.552285,98 458,98 L444,98 Z" transform="translate(-427 -57)"/></svg>